<?xml version="1.0" standalone="no"?>
<!DOCTYPE svg PUBLIC "-//W3C//DTD SVG 20010904//EN"
 "http://www.w3.org/TR/2001/REC-SVG-20010904/DTD/svg10.dtd">
<svg version="1.0" xmlns="http://www.w3.org/2000/svg"
 width="234.000000pt" height="35.000000pt" viewBox="0 0 234.000000 35.000000"
 preserveAspectRatio="xMidYMid meet">

<g transform="translate(0.000000,35.000000) scale(0.100000,-0.100000)"
fill="#000000" stroke="none">
<path d="M1529 313 c-13 -16 -12 -17 4 -4 9 7 17 15 17 17 0 8 -8 3 -21 -13z"/>
<path d="M1609 233 c-13 -16 -12 -17 4 -4 16 13 21 21 13 21 -2 0 -10 -8 -17
-17z"/>
<path d="M392 228 c-13 -13 -16 -75 -6 -102 7 -19 74 -22 92 -4 16 16 16 90 0
106 -7 7 -26 12 -43 12 -17 0 -36 -5 -43 -12z m73 -53 c0 -38 -2 -40 -30 -40
-26 0 -30 4 -33 28 -5 44 4 59 35 55 25 -3 28 -7 28 -43z"/>
<path d="M510 175 c0 -78 18 -88 22 -12 l3 52 28 -52 c19 -37 33 -53 47 -53
18 0 20 7 20 65 0 78 -18 88 -22 13 l-3 -53 -28 53 c-19 36 -33 52 -47 52 -18
0 -20 -7 -20 -65z"/>
<path d="M672 231 c-9 -5 -12 -25 -10 -62 l3 -54 43 -3 c31 -2 44 1 48 13 4 9
3 19 -1 23 -4 4 -10 1 -12 -5 -3 -7 -18 -13 -34 -13 -28 0 -29 2 -29 45 0 43
1 45 30 45 17 0 30 -4 30 -10 0 -5 5 -10 10 -10 16 0 11 27 -6 34 -22 8 -57 7
-72 -3z"/>
<path d="M792 228 c-16 -16 -16 -90 0 -106 16 -16 70 -16 86 0 16 16 16 90 0
106 -7 7 -26 12 -43 12 -17 0 -36 -5 -43 -12z m73 -53 c0 -38 -2 -40 -30 -40
-26 0 -30 4 -33 28 -5 44 4 59 35 55 25 -3 28 -7 28 -43z"/>
<path d="M910 175 l0 -65 45 0 c25 0 45 5 45 10 0 6 -16 10 -35 10 l-35 0 0
55 c0 30 -4 55 -10 55 -6 0 -10 -28 -10 -65z"/>
<path d="M1021 226 c-7 -8 -11 -36 -9 -63 3 -48 3 -48 41 -51 21 -2 45 2 53 9
17 14 19 90 2 107 -17 17 -73 15 -87 -2z m74 -51 c0 -38 -2 -40 -30 -40 -26 0
-30 4 -33 28 -5 44 4 59 35 55 25 -3 28 -7 28 -43z"/>
<path d="M1151 226 c-7 -8 -11 -36 -9 -63 l3 -48 50 0 c49 0 50 1 53 33 3 28
0 32 -22 32 -14 0 -28 -4 -31 -10 -3 -5 3 -10 15 -10 34 0 17 -25 -19 -28
l-32 -3 3 43 c3 36 7 44 26 46 13 2 30 -2 38 -9 19 -16 30 -4 14 16 -16 19
-74 20 -89 1z"/>
<path d="M1270 175 c0 -37 4 -65 10 -65 6 0 10 28 10 65 0 37 -4 65 -10 65 -6
0 -10 -28 -10 -65z"/>
<path d="M1332 178 c-22 -61 -22 -82 0 -60 16 16 75 15 81 0 2 -7 7 -10 11 -7
3 3 -4 33 -15 67 -28 83 -48 83 -77 0z m52 16 c11 -29 6 -44 -14 -44 -22 0
-23 3 -14 38 7 26 19 29 28 6z"/>
<path d="M1742 231 c-9 -5 -12 -25 -10 -62 l3 -54 40 -3 c29 -3 43 1 52 14 18
24 16 79 -3 98 -17 17 -61 21 -82 7z m68 -56 c0 -43 -1 -45 -30 -45 -28 0 -30
2 -30 38 0 45 5 52 37 52 21 0 23 -5 23 -45z"/>
<path d="M1860 175 c0 -37 4 -65 10 -65 6 0 10 9 10 20 0 16 7 20 30 20 23 0
30 -4 30 -20 0 -11 4 -20 9 -20 14 0 12 113 -2 122 -7 4 -29 8 -49 8 l-38 0 0
-65z m80 20 c0 -21 -5 -25 -30 -25 -25 0 -30 4 -30 25 0 21 5 25 30 25 25 0
30 -4 30 -25z"/>
<path d="M1604 158 l-19 -23 23 19 c21 18 27 26 19 26 -2 0 -12 -10 -23 -22z"/>
</g>
</svg>
