<?xml version="1.0" standalone="no"?>
<!DOCTYPE svg PUBLIC "-//W3C//DTD SVG 20010904//EN"
 "http://www.w3.org/TR/2001/REC-SVG-20010904/DTD/svg10.dtd">
<svg version="1.0" xmlns="http://www.w3.org/2000/svg"
 width="459.000000pt" height="192.000000pt" viewBox="0 0 459.000000 192.000000"
 preserveAspectRatio="xMidYMid meet">

<g transform="translate(0.000000,192.000000) scale(0.100000,-0.100000)"
fill="#000000" stroke="none">
<path d="M1498 1845 c-75 -19 -172 -60 -225 -97 l-43 -29 0 -216 0 -217 25 50
c83 167 285 267 477 235 73 -12 164 -52 215 -95 l30 -25 66 67 67 68 0 65 0
65 -52 31 c-75 45 -160 81 -232 98 -76 18 -252 18 -328 0z"/>
<path d="M2492 1788 l3 -33 83 -3 83 -3 -20 -25 c-45 -58 -32 -151 27 -190 70
-47 204 -39 257 16 46 48 53 137 14 179 -24 26 -24 31 1 31 16 0 20 7 20 30
l0 30 -236 0 -235 0 3 -32z m339 -38 c82 -23 108 -100 51 -152 -28 -24 -41
-28 -92 -28 -51 0 -64 4 -89 28 -30 27 -34 38 -32 80 1 29 44 70 79 75 15 2
32 5 37 5 6 1 26 -3 46 -8z"/>
<path d="M3250 1785 c0 -2 21 -16 48 -31 55 -32 507 -298 632 -372 47 -27 86
-49 88 -47 2 1 -4 18 -13 37 -15 30 -43 48 -243 151 -125 65 -290 151 -366
192 -144 77 -146 78 -146 70z"/>
<path d="M110 1135 l0 -635 135 0 135 0 0 240 0 240 255 0 256 0 -3 153 -3
152 -252 3 -253 2 0 240 0 240 -135 0 -135 0 0 -635z"/>
<path d="M896 1763 c-3 -4 -6 -99 -5 -212 l0 -206 30 74 c42 105 90 174 186
268 l82 82 -143 0 c-79 0 -147 -3 -150 -6z"/>
<path d="M2910 1450 c-10 -18 -21 -20 -124 -20 -109 0 -114 -1 -139 -26 -56
-56 -41 -196 24 -229 41 -22 49 -19 49 20 0 24 -5 35 -15 35 -33 0 -51 94 -24
126 16 20 57 17 67 -3 5 -10 15 -49 21 -88 15 -88 38 -115 96 -115 22 0 50 7
62 15 41 29 49 120 15 180 -7 14 -5 25 9 44 23 32 16 81 -12 81 -10 0 -23 -9
-29 -20z m-34 -95 c12 -8 27 -28 33 -44 11 -24 10 -35 -4 -65 -19 -40 -51 -48
-78 -18 -11 13 -37 108 -37 139 0 10 69 1 86 -12z"/>
<path d="M3775 1175 c-151 -49 -275 -93 -275 -96 0 -4 30 -19 68 -35 37 -15
72 -31 77 -35 6 -4 49 5 95 20 47 15 217 70 378 121 160 52 292 98 292 103 0
5 -10 7 -22 4 -13 -3 -94 -2 -181 1 l-158 7 -274 -90z"/>
<path d="M3050 1143 c0 -5 10 -14 23 -22 61 -38 1057 -753 1056 -759 0 -4 -43
-45 -95 -92 l-94 -85 37 -3 c33 -3 42 2 114 74 53 53 82 75 93 71 9 -4 49 -28
88 -55 96 -64 103 -68 94 -53 -4 6 -31 29 -59 50 -48 35 -558 469 -709 602
-60 53 -69 66 -90 131 -29 85 2 72 -272 113 -93 14 -173 28 -178 31 -4 3 -8 1
-8 -3z"/>
<path d="M2937 1094 c-3 -4 -41 -10 -84 -14 -67 -7 -81 -11 -97 -33 l-19 -26
-28 28 c-48 48 -137 51 -179 6 -30 -32 -39 -82 -40 -212 l0 -113 235 0 235 0
0 35 0 35 -100 0 -100 0 0 70 c0 114 18 134 130 147 l65 8 3 38 c3 34 -5 46
-21 31z m-256 -103 c27 -28 29 -34 29 -110 l0 -81 -80 0 -80 0 0 74 c0 88 11
123 42 136 39 15 59 11 89 -19z"/>
<path d="M1230 760 l0 -215 63 -37 c34 -20 98 -49 142 -64 72 -25 94 -28 225
-28 138 -1 149 1 237 31 51 18 119 49 152 70 l61 38 0 65 0 64 -67 68 -66 67
-30 -25 c-84 -70 -207 -108 -328 -102 -73 5 -98 11 -160 41 -85 41 -154 106
-198 187 l-31 55 0 -215z"/>
<path d="M892 708 l3 -203 148 -3 148 -3 -77 73 c-87 82 -163 191 -195 279
-12 32 -23 59 -26 59 -2 0 -2 -91 -1 -202z"/>
<path d="M2804 630 c-155 -5 -166 -9 -185 -67 -14 -44 2 -107 31 -123 27 -14
25 -32 -2 -28 -20 3 -23 -2 -23 -27 l0 -30 165 0 165 0 3 33 3 32 -120 0
c-111 0 -122 2 -147 23 -35 31 -38 82 -5 109 20 15 42 18 147 18 l124 0 0 29
c0 17 -3 31 -7 33 -5 2 -71 1 -149 -2z"/>
<path d="M3080 242 c0 -30 5 -52 10 -52 6 0 10 8 8 18 -2 12 5 18 24 20 22 3
27 -1 31 -25 2 -15 4 -1 5 32 0 39 -2 51 -7 35 -7 -25 -50 -42 -52 -21 -3 26
-4 30 -11 37 -5 4 -8 -16 -8 -44z"/>
<path d="M3202 278 c-7 -7 -12 -26 -12 -43 0 -36 15 -55 46 -55 23 0 51 26 40
37 -3 4 -12 -2 -20 -12 -17 -24 -43 -14 -52 20 -9 37 18 65 46 47 27 -16 35
-15 20 3 -15 18 -51 20 -68 3z"/>
<path d="M3305 278 c-6 -20 -1 -85 8 -94 4 -4 7 4 7 19 0 19 6 27 23 30 l22 4
-22 2 c-35 2 -31 39 5 44 25 4 24 4 -6 6 -18 0 -34 -4 -37 -11z"/>
<path d="M3396 259 c-9 -45 -7 -69 4 -69 6 0 10 14 10 32 0 36 10 30 26 -15
l11 -32 19 40 19 40 6 -40 c6 -37 6 -36 8 18 1 60 -13 77 -24 28 -3 -16 -12
-34 -19 -40 -10 -8 -16 -2 -25 29 -14 48 -26 51 -35 9z"/>
<path d="M3530 248 c0 -49 13 -68 47 -68 16 0 27 8 33 26 13 33 13 84 0 84 -5
0 -10 -20 -10 -44 0 -27 -5 -46 -13 -49 -24 -9 -40 10 -39 47 1 19 -3 38 -8
41 -6 4 -10 -12 -10 -37z"/>
<path d="M3652 278 c-19 -19 -14 -28 23 -44 38 -16 44 -28 19 -38 -10 -4 -26
1 -37 11 -14 13 -19 14 -15 4 7 -25 36 -37 56 -25 30 19 27 43 -7 55 -17 6
-31 17 -31 25 0 17 37 19 43 2 2 -7 8 -9 13 -5 10 9 -14 27 -36 27 -9 0 -21
-5 -28 -12z"/>
<path d="M3749 285 c-3 -26 0 -97 5 -102 3 -3 6 3 6 14 0 14 9 23 27 28 34 8
45 23 32 47 -9 16 -68 27 -70 13z m59 -27 c3 -13 -3 -18 -22 -18 -20 0 -26 5
-26 21 0 15 5 20 22 17 13 -2 24 -11 26 -20z"/>
<path d="M2490 225 l0 -35 235 0 235 0 0 35 0 35 -235 0 -235 0 0 -35z"/>
</g>
</svg>
